<?xml version="1.0" encoding="utf-8"?>
<!-- Generator: Adobe Illustrator 26.4.1, SVG Export Plug-In . SVG Version: 6.00 Build 0)  -->
<svg version="1.1" id="Layer_1" xmlns="http://www.w3.org/2000/svg" xmlns:xlink="http://www.w3.org/1999/xlink" x="0px" y="0px"
	 viewBox="0 0 323.3 410.8" style="enable-background:new 0 0 323.3 410.8;" xml:space="preserve">
<style type="text/css">
	.st0{fill:#C4D600;}
	.st1{fill:#FFFFFF;}
</style>
<g id="Group_10" transform="translate(0)">
	<g id="Group_9">
		<path id="Path_132" class="st0" d="M36.8,409.3c0,0-24.7,8.1-36.8-13.7l42.4-80.9c0,0,38,4.9,43.5,28.6L36.8,409.3z"/>
		<path id="Path_133" class="st1" d="M82.1,348.7h5.4c0.9-0.1,1.5-0.9,1.4-1.7c0,0,0,0,0,0c0-0.8-0.6-1.5-1.4-1.5
			c-0.1,0-0.2,0-0.4,0c-0.2,0-23.1,2.4-36-9.7c-6.2-5.9-9.1-14.4-8.6-25.2c0-0.9-0.7-1.7-1.6-1.8c-0.9,0-1.6,0.7-1.6,1.6
			c0,0,0,0,0,0c-0.6,11.8,2.7,21.1,9.7,27.6C59,347.3,74.2,348.7,82.1,348.7"/>
		<path id="Path_135" class="st0" d="M113.7,176.1c0,0,5.9-16.1-3.2-13.4s-10.7-9.9-10.7-9.9l-7.2,1.8c0,0,0,10.4,6.7,13.1
			s6.2,11.2,6.2,11.2L113.7,176.1z"/>
		<path id="Path_136" class="st1" d="M101,324c0,0,16.4,16,18,2.6s18-9.4,18-9.4l1.8-10.5c0,0-12.4-5.1-19.5,2.6s-17.2,2.7-17.2,2.7
			L101,324z"/>
		<path id="Path_137" class="st1" d="M227.9,166.2c0,0,13.4-4.5,10.8-9.4s1.6-12.6,4.3-14.2s-4.1-5.1-4.1-5.1s-9.9,4.6-9.4,9.9
			s2.1,11.2-2.6,12.3S227.9,166.2,227.9,166.2"/>
		<path id="Path_138" class="st1" d="M195.6,350.4h0.3c1-0.3,22.7-6.1,26-17.4c1.3-4.3,0-8.6-4-12.9s-5.1-7.5-4.8-10.5
			s7.2-9.9,13.6-14c3.9-2.3,7.5-5.1,10.7-8.3c1.4-1.6,3-3.7,2.4-5.6s-3.5-2.7-6.9-3.3s-7.5-1.4-9.3-4.1c-1-2-1.2-4.3-0.5-6.4
			c0.2-0.9-0.4-1.8-1.3-1.9c-0.8-0.2-1.7,0.3-1.9,1.1c-0.8,3.7-0.5,6.7,1.1,8.9s7.3,4.8,11.3,5.4c1.5,0.2,3,0.6,4.3,1.3
			c-0.4,0.9-0.9,1.7-1.6,2.4c-3.1,3-6.5,5.6-10.2,7.8c-7,4.6-14.2,9.4-15,16.3c-0.5,4.1,1.3,8.5,5.6,13.1s4.3,6.9,3.3,9.9
			c-2.9,9.7-23.6,15.2-23.8,15.2c-0.9,0.3-1.3,1.2-1.1,2.1C194.2,350,194.8,350.5,195.6,350.4"/>
		<path id="Path_139" class="st0" d="M29.7,278H30c2.5-0.7,4.6-2.2,6.1-4.3c1.9-2.9,2.2-6.9,1-11.6s-6.4-6.7-10.4-6.2
			s-8.3,1.1-12.8-4.8s-4.1-8.3-2.9-11.5c2-4.6,2.5-9.7,1.6-14.7c0-0.4-0.3-0.8-0.6-1.1c-0.7-0.6-1.7-0.5-2.3,0.2
			c-0.3,0.3-0.4,0.8-0.4,1.2c1.1,7.2-0.3,10.5-1.4,13.1s-2.4,7,3.3,14.7s11.5,6.7,15.8,6.1s5.6-0.6,6.9,3.8s0.8,6.9-0.5,9.1
			c-0.9,1.4-2.3,2.4-4,2.9c-0.9,0.2-1.4,1-1.3,1.9c0,0,0,0,0,0.1C28.4,277.4,29,277.9,29.7,278"/>
		<path id="Path_140" class="st1" d="M160.2,62.7l1.9-0.5c2.6-1.3,3.5-5.1,3.2-11.3c0-3-0.8-4.9-2.2-5.9s-4.5-0.8-7-0.2
			s-4.5,1.3-6.1,0.3s-2.4-2.9-2.9-6.2c-2.1-11.3,1.9-15.5,5.6-19.1c2-1.8,3.5-4.1,4.3-6.7c1.1-4.6-2.1-5.4-4.5-6.2
			c-1.9-0.4-3.7-1.2-5.2-2.4c-1.5-1.2-2.7-2.7-3.6-4.5l-2.9,1.4c1,2.2,2.5,4,4.3,5.5c1.9,1.5,4,2.5,6.4,2.9c2.6,0.8,2.7,1,2.4,2.6
			c-0.7,2-2,3.8-3.7,5.1c-3.7,3.8-8.8,9.1-6.4,22c0.8,4.1,2.2,6.9,4.3,8.3s6.1,0.8,8.8,0.2s3.5-1,4.1-0.5s1,1,1,3.5
			c0.3,7-1.1,8.1-1.4,8.3c-0.6,0-1.2,0-1.8-0.2l-1.8,2.6C158,62.4,159.1,62.7,160.2,62.7"/>
		<path id="Path_141" class="st1" d="M24.2,152.3c-4.1,0-7.3-3-7.3-6.7s3.3-6.7,7.3-6.7s7.3,3,7.3,6.7S28.3,152.3,24.2,152.3"/>
		<path id="Path_142" class="st0" d="M170.7,396.9c-1.3,0-2.4-1.1-2.4-2.4s1.1-2.4,2.4-2.4c1.3,0,2.4,1.1,2.4,2.4
			S172,396.9,170.7,396.9L170.7,396.9"/>
		<path id="Path_143" class="st0" d="M300.2,219.8c-2,0-3.7-1.4-3.7-3s1.6-3,3.7-3s3.7,1.4,3.7,3S302.2,219.8,300.2,219.8"/>
		<path id="Path_144" class="st1" d="M319.7,42.6c-2,0-3.7-1.4-3.7-3s1.6-3,3.7-3s3.7,1.4,3.7,3S321.7,42.6,319.7,42.6"/>
		<path id="Path_145" class="st0" d="M32.8,31.3c-2.7,0-4.9-1.9-4.9-4.1s2.2-4.1,4.9-4.1s4.9,1.9,4.9,4.1S35.6,31.3,32.8,31.3"/>
		<path id="Path_146" class="st0" d="M56.6,323.2c0.9,0,1.6-0.7,1.6-1.6l0,0l1.3-142.9c0-0.9-0.7-1.6-1.6-1.6c0,0,0,0,0,0
			c-0.8-0.1-1.5,0.5-1.6,1.3c0,0.1,0,0.2,0,0.3L55,321.6c-0.1,0.8,0.5,1.5,1.3,1.6C56.4,323.2,56.5,323.2,56.6,323.2"/>
		<path id="Path_147" class="st0" d="M56.6,153.3c0.8,0,1.5-0.6,1.6-1.4l1.3-40.4c0-0.9-0.7-1.6-1.6-1.6c-0.8-0.1-1.5,0.5-1.6,1.3
			c0,0.1,0,0.1,0,0.2L55,151.7c-0.1,0.8,0.5,1.5,1.2,1.6C56.4,153.3,56.5,153.3,56.6,153.3"/>
		<path id="Path_148" class="st0" d="M93.3,304.8c0.5,0,1-0.3,1.3-0.8l88.1-151.5c0.3-0.8-0.1-1.7-0.9-2.1c-0.6-0.2-1.3,0-1.8,0.5
			l-88,151.5c-0.4,0.8-0.2,1.7,0.6,2.2c0,0,0,0,0.1,0L93.3,304.8z"/>
		<path id="Path_149" class="st0" d="M196.5,132.2c0.6,0,1.1-0.3,1.4-0.8l18.3-36.1c0.4-0.8,0-1.8-0.8-2.2c-0.8-0.3-1.7,0-2.1,0.8
			L195.1,130c-0.3,0.8,0,1.7,0.8,2.1L196.5,132.2z"/>
		<path id="Path_150" class="st0" d="M165.4,274.4c0.4,0,0.8-0.2,1.1-0.5c6.1-6.1,48.3-46.1,48.8-46.4c0.6-0.6,0.6-1.6,0-2.2
			c-0.6-0.6-1.5-0.6-2.2-0.2c-0.3,0.5-42.7,40.5-48.8,46.6c-0.6,0.6-0.6,1.6,0,2.2C164.6,274.2,165,274.4,165.4,274.4"/>
		<path id="Path_151" class="st0" d="M260.6,191.3l1-0.3l23.3-17.1c0.6-0.6,0.8-1.5,0.3-2.2c-0.4-0.7-1.3-0.9-2-0.5
			c-0.1,0.1-0.2,0.1-0.3,0.2l-23.3,17.1c-0.6,0.6-0.8,1.5-0.3,2.2C259.7,191,260.2,191.2,260.6,191.3"/>
	</g>
</g>
</svg>
