<?xml version="1.0" encoding="utf-8"?>
<!-- Generator: Adobe Illustrator 26.4.1, SVG Export Plug-In . SVG Version: 6.00 Build 0)  -->
<svg version="1.1" id="Layer_1" xmlns="http://www.w3.org/2000/svg" xmlns:xlink="http://www.w3.org/1999/xlink" x="0px" y="0px"
	 viewBox="0 0 323.3 410.8" style="enable-background:new 0 0 323.3 410.8;" xml:space="preserve">
<style type="text/css">
	.st0{fill:#C4D600;}
	.st1{fill:#FFFFFF;}
</style>
<g id="Group_10" transform="translate(0)">
	<g id="Group_9">
		<path id="Path_132" class="st0" d="M237.4,343.3c5.6-23.6,43.5-28.6,43.5-28.6l42.4,80.9c-12.1,21.9-36.8,13.7-36.8,13.7
			L237.4,343.3z"/>
		<path id="Path_133" class="st1" d="M241.2,348.7c8,0,23.1-1.4,33-10.7c7-6.5,10.4-15.8,9.7-27.6c0,0,0,0,0,0
			c0-0.9-0.7-1.6-1.6-1.6c-0.9,0.1-1.6,0.8-1.6,1.8c0.5,10.8-2.4,19.3-8.6,25.2c-12.9,12.1-35.9,9.7-36,9.7c-0.1,0-0.2,0-0.4,0
			c-0.8,0-1.4,0.7-1.4,1.5c0,0,0,0,0,0c-0.1,0.9,0.6,1.7,1.4,1.7L241.2,348.7"/>
		<path id="Path_135" class="st0" d="M217.7,178.8c0,0-0.5-8.5,6.2-11.2s6.7-13.1,6.7-13.1l-7.2-1.8c0,0-1.6,12.6-10.7,9.9
			s-3.2,13.4-3.2,13.4L217.7,178.8z"/>
		<path id="Path_136" class="st1" d="M221.2,311.8c0,0-10.2,4.9-17.2-2.7s-19.5-2.6-19.5-2.6l1.8,10.5c0,0,16.4-4,18,9.4
			s18-2.6,18-2.6L221.2,311.8z"/>
		<path id="Path_137" class="st1" d="M95.4,166.2c0,0,5.6-5.4,1-6.5s-3-7-2.6-12.3s-9.4-9.9-9.4-9.9s-6.9,3.5-4.1,5.1
			s6.9,9.3,4.3,14.2S95.4,166.2,95.4,166.2"/>
		<path id="Path_138" class="st1" d="M127.8,350.4c0.7,0,1.4-0.4,1.6-1.1c0.2-0.9-0.3-1.8-1.1-2.1c-0.2,0-20.9-5.4-23.8-15.2
			c-1-3-1-5.3,3.3-9.9s6.1-8.9,5.6-13.1c-0.8-6.9-8-11.6-15-16.3c-3.7-2.2-7.1-4.8-10.2-7.8c-0.7-0.7-1.2-1.5-1.6-2.4
			c1.3-0.7,2.8-1.1,4.3-1.3c4-0.6,9.7-3.2,11.3-5.4s1.9-5.3,1.1-8.9c-0.2-0.8-1.1-1.3-1.9-1.1c-0.9,0.2-1.5,1.1-1.3,1.9
			c0.7,2.1,0.5,4.4-0.5,6.4c-1.8,2.7-5.9,3.5-9.3,4.1s-6.2,1.4-6.9,3.3s1,4,2.4,5.6c3.2,3.2,6.8,6,10.7,8.3c6.4,4.1,13.2,11,13.6,14
			s-0.8,6.2-4.8,10.5s-5.3,8.6-4,12.9c3.3,11.3,25,17.1,26,17.4L127.8,350.4"/>
		<path id="Path_139" class="st0" d="M293.7,278c0.7-0.1,1.3-0.6,1.4-1.3c0,0,0,0,0-0.1c0.2-0.9-0.4-1.7-1.3-1.9
			c-1.6-0.4-3.1-1.5-4-2.9c-1.3-2.2-1.8-4.6-0.5-9.1s2.6-4.5,6.9-3.8s10,1.6,15.8-6.1s4.5-12.1,3.3-14.7s-2.6-5.9-1.4-13.1
			c0-0.4-0.1-0.9-0.4-1.2c-0.6-0.7-1.6-0.8-2.3-0.2c-0.3,0.3-0.5,0.7-0.6,1.1c-0.9,4.9-0.4,10.1,1.6,14.7c1.3,3.2,1.6,5.6-2.9,11.5
			s-8.8,5.3-12.8,4.8s-9.1,1.4-10.4,6.2s-1,8.8,1,11.6c1.4,2.1,3.6,3.6,6.1,4.3H293.7"/>
		<path id="Path_140" class="st1" d="M163.2,62.7c1.1,0,2.1-0.3,3-1l-1.8-2.6c-0.6,0.1-1.2,0.2-1.8,0.2c-0.3-0.2-1.8-1.3-1.4-8.3
			c0-2.6,0.3-3,1-3.5s1.4-0.2,4.1,0.5s6.7,1.3,8.8-0.2s3.5-4.2,4.3-8.3c2.4-12.9-2.7-18.2-6.4-22c-1.7-1.3-2.9-3.1-3.7-5.1
			c-0.3-1.6-0.2-1.8,2.4-2.6c2.3-0.5,4.5-1.5,6.4-2.9c1.9-1.5,3.3-3.4,4.3-5.5L179.6,0c-0.8,1.8-2,3.3-3.6,4.5
			c-1.5,1.2-3.3,2-5.2,2.4c-2.4,0.8-5.6,1.6-4.5,6.2c0.8,2.6,2.3,4.9,4.3,6.7c3.7,3.7,7.7,7.8,5.6,19.1c-0.5,3.4-1.3,5.3-2.9,6.2
			s-3.5,0.3-6.1-0.3s-5.6-0.8-7,0.2s-2.2,2.9-2.2,5.9c-0.3,6.2,0.6,10,3.2,11.3L163.2,62.7"/>
		<path id="Path_141" class="st1" d="M299.1,152.3c-4.1,0-7.3-3-7.3-6.7s3.3-6.7,7.3-6.7s7.3,3,7.3,6.7S303.2,152.3,299.1,152.3"/>
		<path id="Path_142" class="st0" d="M152.7,396.9L152.7,396.9c-1.3,0-2.4-1.1-2.4-2.4s1.1-2.4,2.4-2.4c1.3,0,2.4,1.1,2.4,2.4
			S154,396.9,152.7,396.9"/>
		<path id="Path_143" class="st0" d="M23.1,219.8c-2,0-3.7-1.4-3.7-3s1.6-3,3.7-3s3.7,1.4,3.7,3S25.2,219.8,23.1,219.8"/>
		<path id="Path_144" class="st1" d="M3.7,42.6c-2,0-3.7-1.4-3.7-3c0-1.7,1.6-3,3.7-3s3.7,1.4,3.7,3S5.7,42.6,3.7,42.6"/>
		<path id="Path_145" class="st0" d="M290.5,31.3c-2.7,0-4.9-1.9-4.9-4.1s2.2-4.1,4.9-4.1s4.9,1.9,4.9,4.1S293.2,31.3,290.5,31.3"/>
		<path id="Path_146" class="st0" d="M266.7,323.2c0.1,0,0.2,0,0.3,0c0.8-0.1,1.3-0.8,1.3-1.6L267,178.7c0-0.1,0-0.2,0-0.3
			c-0.1-0.8-0.8-1.3-1.6-1.3c0,0,0,0,0,0c-0.9,0-1.6,0.7-1.6,1.6l1.3,142.9l0,0C265.1,322.5,265.8,323.2,266.7,323.2"/>
		<path id="Path_147" class="st0" d="M266.7,153.3c0.1,0,0.2,0,0.3,0c0.8-0.1,1.3-0.8,1.2-1.6l-1.3-40.4c0-0.1,0-0.1,0-0.2
			c-0.1-0.8-0.8-1.4-1.6-1.3c-0.9,0-1.6,0.7-1.6,1.6l1.3,40.4C265.2,152.7,265.9,153.3,266.7,153.3"/>
		<path id="Path_148" class="st0" d="M230.8,304.7C230.8,304.6,230.9,304.6,230.8,304.7c0.8-0.5,1.1-1.5,0.6-2.2l-88-151.5
			c-0.4-0.5-1.1-0.7-1.8-0.5c-0.8,0.3-1.3,1.2-0.9,2.1L228.7,304c0.2,0.5,0.7,0.8,1.3,0.8L230.8,304.7z"/>
		<path id="Path_149" class="st0" d="M127.4,132.1c0.8-0.4,1.1-1.3,0.8-2.1L109.9,94c-0.4-0.8-1.3-1.1-2.1-0.8
			c-0.8,0.4-1.2,1.4-0.8,2.2l18.3,36.1c0.3,0.5,0.9,0.8,1.4,0.8L127.4,132.1z"/>
		<path id="Path_150" class="st0" d="M157.9,274.4c0.4,0,0.8-0.2,1.1-0.5c0.6-0.6,0.6-1.6,0-2.2c-6.1-6.1-48.5-46.1-48.8-46.6
			c-0.7-0.5-1.6-0.4-2.2,0.2c-0.6,0.6-0.6,1.6,0,2.2c0.5,0.3,42.7,40.4,48.8,46.4C157.1,274.2,157.5,274.3,157.9,274.4"/>
		<path id="Path_151" class="st0" d="M62.7,191.3c0.5,0,0.9-0.3,1.3-0.6c0.4-0.7,0.3-1.7-0.3-2.2l-23.3-17.1
			c-0.1-0.1-0.2-0.1-0.3-0.2c-0.7-0.4-1.6-0.2-2,0.5c-0.4,0.7-0.3,1.7,0.3,2.2l23.3,17.1L62.7,191.3"/>
	</g>
</g>
</svg>
